<?xml version="1.0" standalone="no"?>
<!DOCTYPE svg PUBLIC "-//W3C//DTD SVG 20010904//EN"
 "http://www.w3.org/TR/2001/REC-SVG-20010904/DTD/svg10.dtd">
<svg version="1.0" xmlns="http://www.w3.org/2000/svg"
 width="610.000000pt" height="645.000000pt" viewBox="0 0 610.000000 645.000000"
 preserveAspectRatio="xMidYMid meet">
<metadata>
Created by potrace 1.16, written by Peter Selinger 2001-2019
</metadata>
<g transform="translate(0.000000,645.000000) scale(0.100000,-0.100000)"
fill="#000000" stroke="none">
<path d="M3171 6367 c-6 -16 -13 -49 -15 -75 -7 -73 -17 -117 -27 -120 -5 -2
-9 -21 -9 -43 0 -22 -9 -65 -20 -96 -24 -69 -24 -69 -3 -47 14 13 18 14 22 3
2 -8 8 -17 13 -20 9 -6 18 -286 9 -295 -3 -3 -5 -17 -6 -32 0 -30 6 -29 -142
-32 -51 -2 -111 -6 -135 -10 -24 -5 -45 -5 -48 -1 -3 3 -16 11 -30 17 -15 7
-30 26 -39 50 -7 22 -19 46 -27 54 -7 8 -12 19 -12 23 0 4 -5 21 -12 37 -15
36 -30 31 -24 -8 3 -15 6 -54 8 -87 2 -33 8 -73 15 -88 22 -56 22 -57 -119
-89 -30 -7 -59 -13 -65 -13 -5 0 -12 -2 -15 -5 -3 -3 -25 -14 -50 -25 -25 -10
-59 -29 -77 -42 -17 -13 -36 -23 -41 -23 -6 0 -28 -15 -51 -34 -22 -19 -58
-45 -78 -57 -21 -13 -43 -30 -49 -37 -15 -21 -45 1 -72 52 -29 54 -28 62 7 69
34 7 77 44 85 73 6 20 2 21 -86 29 -120 10 -116 9 -163 25 -36 11 -91 43 -105
60 -3 3 -21 12 -40 20 -36 15 -67 33 -150 88 -27 17 -56 32 -63 32 -8 0 -26
10 -41 21 -34 27 -42 19 -22 -22 9 -18 16 -38 16 -44 0 -7 16 -30 36 -51 20
-22 48 -55 62 -74 15 -19 29 -37 32 -40 10 -10 85 -126 99 -152 7 -16 17 -28
22 -28 5 0 9 -7 9 -15 0 -8 9 -19 19 -24 11 -6 24 -31 32 -61 7 -27 16 -50 21
-50 4 0 8 -7 8 -15 0 -18 33 -20 59 -4 22 15 71 4 71 -15 0 -8 -8 -22 -17 -32
-18 -18 -29 -35 -59 -92 -9 -19 -32 -46 -51 -60 -18 -15 -33 -32 -33 -38 0 -6
-18 -35 -41 -65 -22 -30 -45 -65 -50 -78 -8 -20 -14 -22 -47 -16 -20 3 -70 18
-110 32 -40 14 -75 23 -78 20 -3 -3 12 -20 32 -39 21 -18 58 -52 82 -75 48
-45 47 -41 23 -140 -14 -54 -25 -100 -46 -183 -9 -36 -18 -88 -22 -117 -5 -46
-9 -53 -38 -67 -18 -9 -38 -16 -43 -16 -6 0 -17 -9 -25 -20 -16 -22 -44 -18
-49 7 -2 11 -21 16 -77 18 -74 4 -91 12 -91 46 0 9 11 24 25 33 32 21 33 39 1
26 -13 -5 -26 -7 -28 -4 -3 2 -22 -3 -42 -11 -60 -25 -71 -4 -35 66 11 23 19
43 16 45 -2 2 -33 -15 -69 -40 -36 -24 -79 -50 -94 -58 -133 -70 -119 -66
-248 -67 -166 -1 -346 -9 -376 -16 -36 -9 -101 -15 -213 -19 -55 -2 -104 -9
-112 -16 -8 -6 -23 -9 -35 -5 -11 3 -20 2 -20 -3 0 -10 29 -26 43 -24 4 1 7
-2 7 -7 0 -6 8 -10 18 -10 54 0 142 -15 142 -25 0 -6 5 -4 10 4 5 8 10 10 10
4 0 -6 18 -11 41 -12 22 -1 49 -6 59 -12 10 -5 28 -10 39 -10 12 0 21 -4 21
-9 0 -5 24 -15 52 -21 29 -7 64 -18 78 -25 36 -18 166 -45 215 -45 49 0 158
-34 196 -61 15 -10 30 -19 34 -19 3 0 30 -11 58 -24 58 -26 107 -37 185 -42
30 -2 60 -8 68 -15 11 -9 14 -8 14 4 0 18 -61 100 -98 132 l-26 22 22 7 c26 9
85 -9 103 -30 9 -11 31 -14 83 -13 46 0 84 -5 110 -16 33 -14 37 -19 33 -43
-3 -15 -1 -49 4 -77 5 -27 12 -70 14 -95 13 -125 22 -158 52 -188 11 -11 10
-18 -7 -40 -12 -14 -26 -27 -33 -29 -7 -1 -34 -10 -60 -19 -33 -12 -45 -20
-38 -27 7 -7 23 -6 49 2 30 10 44 11 61 2 12 -7 25 -10 30 -7 4 3 14 -6 21
-19 7 -14 19 -25 26 -25 8 0 11 -6 8 -13 -3 -8 2 -20 11 -27 8 -7 15 -17 15
-22 0 -14 69 -156 83 -170 7 -7 24 -39 37 -70 19 -47 21 -60 10 -73 -7 -8 -18
-15 -25 -15 -7 0 -15 -7 -19 -15 -7 -20 -21 -19 -43 3 -19 20 -81 48 -88 40
-7 -7 7 -48 16 -48 5 0 9 -12 9 -27 0 -21 -14 -40 -55 -77 -30 -26 -57 -56
-60 -66 -3 -10 -19 -23 -36 -30 -16 -7 -37 -25 -45 -39 -9 -15 -28 -36 -44
-46 -15 -10 -42 -40 -60 -66 -18 -27 -48 -57 -66 -68 -25 -15 -33 -28 -36 -53
-2 -26 -8 -34 -27 -36 -21 -3 -22 -7 -16 -35 4 -18 8 -45 9 -62 1 -32 -11 -36
-60 -20 l-21 7 17 -53 c10 -30 16 -57 13 -61 -14 -24 -99 22 -124 68 -7 13
-18 24 -24 24 -6 0 -31 20 -56 44 -50 50 -81 61 -87 31 -2 -11 -10 -33 -17
-50 -7 -16 -16 -52 -19 -78 -6 -50 -47 -134 -75 -153 -10 -7 -18 -28 -19 -50
-3 -46 -8 -54 -31 -54 -14 0 -19 -11 -24 -51 -4 -29 -13 -59 -22 -69 -8 -9
-13 -25 -9 -34 3 -9 1 -16 -5 -16 -6 0 -11 -6 -11 -14 0 -8 -3 -16 -7 -18 -5
-1 -19 -27 -32 -55 -14 -29 -28 -53 -33 -53 -4 0 -8 -6 -8 -14 0 -7 -8 -24
-18 -37 -10 -13 -26 -44 -36 -69 -10 -25 -25 -53 -33 -62 -9 -10 -13 -18 -9
-18 3 0 -8 -16 -26 -35 -17 -20 -37 -51 -43 -69 -7 -19 -26 -49 -43 -67 -18
-19 -32 -37 -32 -40 0 -3 -9 -17 -20 -30 -24 -29 -28 -34 -64 -84 -17 -22 -33
-42 -37 -45 -46 -34 -59 -47 -59 -57 0 -6 -19 -30 -42 -53 -41 -39 -41 -41
-13 -30 17 6 57 39 91 73 91 93 153 140 214 166 30 13 57 27 60 30 18 24 82
61 116 67 25 4 49 16 66 35 15 16 31 29 36 29 4 0 33 20 63 45 30 25 59 49 64
53 16 12 161 82 172 82 4 0 20 8 33 17 24 17 37 22 72 27 9 1 22 7 30 13 7 6
25 14 41 18 15 4 27 11 27 16 0 5 9 9 19 9 11 0 23 5 26 10 3 6 14 10 24 10 9
0 22 5 28 11 24 24 118 50 173 48 43 -2 54 1 52 12 -6 28 -53 119 -61 119 -9
0 -101 180 -101 198 0 6 11 14 25 18 14 3 25 13 25 20 0 25 27 26 76 5 26 -12
54 -19 63 -16 9 3 33 29 54 56 21 27 49 55 62 61 14 6 25 16 25 22 0 7 10 18
21 26 61 42 139 116 139 130 0 6 7 10 15 10 8 0 15 5 15 10 0 6 6 10 14 10 7
0 25 18 40 40 30 46 61 52 111 22 17 -10 42 -23 58 -30 26 -11 27 -11 27 19 0
19 -9 39 -25 55 -32 32 -31 39 4 60 17 10 28 22 25 26 -3 5 0 15 6 23 22 26
88 -4 156 -72 13 -13 28 -23 34 -23 6 0 32 -16 58 -35 86 -63 127 -91 155
-105 17 -8 26 -19 22 -28 -3 -7 -5 -25 -5 -38 0 -18 -5 -24 -21 -24 -17 0 -20
-5 -17 -25 3 -14 1 -28 -4 -31 -4 -3 -6 -10 -3 -15 11 -17 -6 -50 -23 -47 -14
2 -18 -7 -22 -47 -4 -38 -9 -49 -20 -46 -45 11 -45 11 -51 -112 -4 -65 -9
-139 -13 -165 -3 -26 -3 -40 1 -32 3 8 12 21 20 28 7 7 13 19 13 26 0 6 18 30
40 51 22 22 38 45 36 51 -3 7 2 15 10 18 8 3 14 12 14 21 0 8 4 15 9 15 4 0 7
17 5 37 -2 21 1 47 6 58 15 32 30 97 24 107 -3 4 1 8 9 8 16 0 27 21 27 51 0
11 7 33 15 49 14 27 19 29 53 24 20 -3 44 -8 52 -11 31 -13 127 -35 166 -38
23 -2 51 -8 63 -14 12 -7 26 -9 31 -6 5 3 11 1 14 -4 3 -4 17 -9 31 -9 48 0
56 -16 52 -116 -2 -50 -1 -100 3 -111 5 -14 0 -25 -17 -38 -30 -24 -29 -37 2
-37 22 0 25 -4 25 -36 0 -22 -4 -33 -11 -29 -7 5 -9 -9 -7 -41 3 -48 3 -48
-34 -59 -49 -14 -55 -22 -20 -30 32 -7 77 -51 61 -60 -5 -4 -7 -9 -5 -13 2 -4
6 -41 10 -83 3 -42 8 -82 11 -90 3 -8 7 -29 9 -46 3 -26 0 -33 -14 -33 -17 0
-47 27 -50 45 -3 24 -80 92 -80 71 0 -12 42 -144 51 -159 5 -10 7 -22 4 -27
-3 -5 3 -26 14 -47 11 -21 21 -49 23 -63 2 -14 11 -40 21 -59 9 -19 17 -40 17
-48 0 -8 10 -29 23 -46 12 -18 22 -41 22 -52 -1 -11 5 -36 12 -55 8 -19 16
-53 19 -75 9 -64 10 -70 16 -80 3 -6 18 -73 34 -150 15 -77 30 -142 34 -145 3
-3 6 -16 7 -30 1 -14 7 -52 13 -85 6 -33 11 -69 11 -79 0 -11 5 -28 10 -39 6
-10 12 -33 14 -51 1 -17 10 -60 20 -95 l19 -64 13 39 c8 21 16 61 18 87 1 27
6 51 9 54 3 3 1 12 -5 20 -9 9 -8 13 0 13 6 0 11 11 11 24 0 14 5 28 10 31 8
5 8 11 0 20 -8 10 -8 15 0 20 6 4 8 15 5 25 -4 11 0 22 10 27 10 6 18 28 21
59 3 27 10 50 15 52 13 5 11 30 -3 35 -10 4 -10 6 0 6 15 1 16 31 1 31 -5 0
-7 5 -4 10 4 6 10 8 15 5 5 -3 11 16 15 42 15 119 40 254 62 332 5 19 3 22 -8
16 -9 -5 -7 -1 3 11 10 11 22 44 28 74 6 30 16 65 22 77 6 11 7 27 3 34 -5 7
-4 10 3 6 6 -5 12 7 15 30 7 52 7 141 0 123 -4 -8 -26 -35 -51 -60 -25 -25
-53 -64 -64 -88 -36 -79 -70 -29 -63 93 2 44 -1 85 -6 92 -7 7 -6 13 1 18 11
7 14 78 3 89 -10 10 -11 48 -2 72 5 14 20 24 43 28 42 8 47 23 11 32 -13 3
-27 15 -30 25 -4 10 -12 19 -19 19 -16 0 -17 154 -1 156 6 0 18 4 28 8 20 10
23 31 3 23 -8 -3 -21 4 -29 16 -17 27 -29 82 -19 92 9 8 9 165 1 165 -4 0 -3
19 3 42 8 38 21 57 38 56 3 0 23 7 45 16 54 23 154 24 170 3 12 -17 8 -74 -6
-82 -4 -3 10 -33 31 -67 22 -34 40 -67 40 -74 0 -7 4 -15 9 -18 4 -3 7 19 6
50 -1 30 2 57 7 60 11 7 3 52 -19 111 -19 51 -12 64 47 83 22 7 40 17 40 22 0
4 9 8 21 8 11 0 33 6 47 14 15 8 42 20 60 26 17 7 32 17 32 22 0 5 4 7 8 4 13
-8 52 22 48 37 -1 6 -1 9 1 5 3 -4 13 -2 23 4 24 16 84 -24 107 -70 8 -18 25
-38 36 -44 39 -21 142 -130 139 -148 -11 -66 -87 -150 -135 -150 -36 0 -26
-16 16 -25 17 -4 44 -16 58 -26 29 -20 114 -45 190 -55 27 -4 54 -13 60 -20 6
-8 22 -14 36 -14 13 0 26 -7 29 -15 4 -8 13 -15 20 -15 8 0 19 -11 24 -26 6
-14 23 -29 40 -35 16 -6 30 -17 30 -25 0 -8 9 -14 20 -14 11 0 20 -4 20 -10 0
-5 6 -10 13 -10 6 0 22 -18 35 -41 13 -22 34 -44 48 -49 13 -5 24 -14 24 -19
0 -5 8 -11 18 -15 9 -3 29 -14 43 -23 15 -10 50 -33 78 -52 28 -19 51 -38 51
-43 0 -4 6 -8 14 -8 7 0 19 -7 26 -15 7 -8 16 -13 20 -10 4 2 17 -9 29 -25 12
-17 27 -30 34 -30 7 0 23 -9 37 -20 14 -11 33 -20 43 -20 10 0 16 -4 12 -9 -6
-10 46 -51 64 -51 6 0 11 -7 11 -15 0 -8 7 -15 15 -15 8 0 15 -4 15 -10 0 -5
7 -10 16 -10 9 0 24 -10 35 -22 10 -14 18 -18 19 -10 0 7 5 10 10 7 6 -4 7
-11 4 -17 -4 -6 -2 -8 4 -4 5 3 13 0 15 -6 4 -8 6 -9 6 -2 1 6 -6 17 -14 24
-8 7 -15 18 -15 26 0 7 -9 18 -21 24 -11 7 -27 26 -34 44 -8 18 -20 38 -28 45
-8 6 -18 23 -21 36 -4 14 -13 25 -21 25 -8 0 -15 5 -15 10 0 6 5 10 12 10 6 0
2 10 -10 23 -12 13 -19 26 -16 30 3 3 -1 16 -10 29 -9 12 -16 30 -16 40 0 10
-4 18 -10 18 -5 0 -7 7 -3 16 4 10 -1 17 -15 21 -12 3 -18 11 -16 18 3 7 -4
23 -15 34 -12 12 -21 28 -21 36 0 9 -6 18 -14 21 -8 3 -12 13 -9 22 2 11 -8
28 -26 45 -17 15 -31 36 -31 46 0 10 -7 22 -15 25 -9 3 -15 12 -13 19 3 13
-74 87 -112 107 -17 9 -18 14 -8 36 6 13 17 23 23 20 7 -2 18 0 25 4 11 7 9
19 -13 62 -15 29 -27 61 -27 71 0 9 -4 17 -8 17 -9 0 -37 61 -46 103 -4 15
-15 35 -26 45 -11 9 -20 22 -20 29 0 6 -9 18 -21 26 -15 11 -17 16 -7 20 10 4
10 8 -2 16 -8 6 -11 11 -6 11 5 0 2 8 -7 18 -8 9 -19 29 -22 45 -4 15 -11 30
-16 33 -5 3 -9 14 -9 25 0 10 -4 19 -10 19 -5 0 -10 11 -10 25 0 14 -10 45
-22 68 l-21 42 -9 -30 c-9 -29 -23 -63 -47 -115 -7 -15 -13 -40 -13 -58 -1
-27 -9 -37 -48 -62 -40 -26 -52 -29 -74 -20 -23 9 -31 20 -27 43 1 4 -6 10
-14 13 -8 4 -15 12 -15 20 0 8 -4 14 -9 14 -5 0 -12 8 -16 18 -7 23 -52 46
-81 43 -27 -3 -37 23 -22 52 6 12 14 27 17 33 18 35 76 114 83 114 4 0 8 5 8
10 0 9 7 18 55 71 8 9 15 19 15 24 0 4 8 15 18 24 9 9 29 39 44 66 15 28 37
69 50 93 18 35 26 42 43 37 11 -4 28 -7 38 -6 9 0 17 -4 17 -10 0 -5 7 -9 15
-9 8 0 31 -9 52 -21 37 -21 53 -26 106 -36 28 -5 53 -36 43 -52 -3 -5 7 -11
23 -14 31 -7 138 0 153 9 24 15 -88 87 -142 91 -72 5 -85 8 -103 26 -11 11
-25 16 -38 12 -12 -4 -21 -1 -25 9 -7 18 -64 36 -91 30 -11 -2 -25 6 -35 20
-16 22 -16 30 -3 92 8 38 15 79 15 92 0 13 8 37 17 55 9 18 17 37 18 42 12
141 34 186 93 186 21 0 91 1 157 3 105 3 123 2 144 -15 13 -10 32 -19 42 -19
11 0 19 -4 19 -10 0 -5 -6 -10 -14 -10 -17 0 -56 -46 -56 -65 0 -9 11 -7 37 6
21 10 43 19 50 19 7 0 30 9 50 20 21 11 46 20 56 20 10 0 47 16 83 35 35 19
73 35 84 35 20 0 29 4 77 28 13 7 35 12 51 12 15 0 33 5 40 12 7 7 12 9 12 5
0 -4 16 2 35 13 19 11 35 15 35 10 0 -6 13 -4 30 5 16 8 33 15 37 15 5 0 36 9
70 20 34 11 78 20 97 20 19 0 47 5 63 11 l28 11 -35 15 c-19 9 -46 15 -60 15
-23 -1 -73 11 -110 25 -8 4 -19 5 -24 4 -4 -1 -18 5 -30 12 -12 8 -33 14 -48
15 -15 0 -46 9 -70 21 -54 26 -88 27 -88 4 0 -13 -8 -9 -33 15 -20 20 -46 34
-63 35 -16 1 -35 7 -41 14 -7 6 -21 9 -31 6 -10 -2 -24 3 -31 11 -8 9 -23 16
-35 16 -11 0 -34 7 -50 15 -36 19 -46 19 -46 0 0 -9 -9 -15 -22 -15 -18 0 -20
2 -8 10 11 7 12 12 4 20 -10 10 -94 37 -139 45 -11 2 -29 7 -39 11 -15 6 -17
4 -11 -7 5 -7 10 -29 12 -47 1 -18 7 -41 13 -52 12 -22 13 -51 3 -48 -5 0 -16
-2 -25 -6 -9 -4 -39 -3 -65 4 -84 20 -137 32 -176 40 -21 4 -41 10 -44 14 -3
3 -12 36 -18 73 -7 38 -20 93 -28 123 -8 30 -18 75 -22 100 -4 25 -16 55 -27
67 -20 21 -20 23 -4 48 9 14 28 31 42 37 13 6 24 17 24 25 0 11 -6 10 -31 -2
-29 -16 -31 -15 -36 4 -3 11 -18 24 -34 30 -18 6 -33 21 -39 38 -6 15 -15 36
-20 45 -6 10 -10 24 -10 32 0 8 -11 28 -25 44 -14 17 -25 34 -25 40 0 5 -7 15
-15 22 -8 7 -15 18 -15 26 0 11 -31 64 -57 99 -18 23 -12 49 22 95 20 28 44
50 53 50 10 0 34 3 55 6 l37 7 0 -39 c0 -37 0 -38 19 -18 10 11 22 30 25 42 4
12 11 22 15 22 4 0 13 16 21 35 8 19 17 35 22 35 4 0 8 6 8 13 0 7 16 30 36
52 19 22 56 70 80 108 25 37 52 70 59 75 7 4 27 35 45 68 17 34 45 76 61 93
16 18 29 36 29 41 0 4 11 18 25 31 13 13 25 27 25 32 0 14 -38 7 -44 -9 -3 -8
-10 -13 -15 -10 -4 3 -19 -3 -31 -14 -13 -11 -29 -20 -35 -20 -7 0 -18 -7 -25
-15 -18 -22 -108 -70 -180 -96 -36 -12 -68 -27 -71 -31 -3 -5 -13 -6 -21 -3
-9 4 -22 -1 -29 -10 -38 -45 -51 -55 -79 -56 -16 -1 -36 -2 -42 -3 -7 0 -19
-13 -26 -28 -10 -22 -20 -28 -45 -28 -37 0 -145 -24 -155 -35 -4 -3 2 -11 13
-17 10 -6 29 -22 42 -36 21 -23 21 -26 7 -37 -9 -6 -27 -10 -40 -7 -20 4 -24
0 -24 -22 0 -24 -4 -26 -40 -26 -22 0 -40 5 -40 10 0 6 -6 10 -12 10 -7 0 -23
11 -36 25 -13 13 -63 49 -112 80 -50 31 -90 61 -90 65 0 5 -14 17 -30 27 -44
26 -91 126 -83 176 3 21 10 40 14 43 5 3 9 25 9 50 0 51 -15 51 -24 0 -4 -19
-14 -45 -24 -57 -10 -13 -23 -35 -30 -49 -7 -14 -21 -35 -30 -48 -17 -22 -19
-22 -55 -7 -20 8 -48 15 -62 15 -29 0 -208 55 -246 76 -15 7 -44 17 -65 22
-30 6 -39 13 -46 37 -5 21 -3 34 8 46 14 16 14 23 -2 80 -17 59 -17 62 0 75
16 11 17 18 5 68 -7 31 -9 59 -4 64 4 4 10 1 12 -5 3 -7 13 -13 23 -13 16 0
19 7 18 45 0 25 -4 45 -8 45 -9 0 -60 169 -60 199 0 12 -5 32 -12 44 -7 12
-11 31 -10 43 2 11 -6 31 -17 45 l-19 24 -11 -28z m-51 -1056 c0 -26 -3 -51
-7 -55 -10 -9 -3 -179 7 -191 10 -12 8 -28 -9 -69 -9 -22 -9 -32 1 -43 9 -11
9 -16 0 -22 -13 -8 -19 -91 -8 -109 12 -20 -31 -40 -104 -47 -41 -4 -79 -10
-85 -15 -5 -4 -21 -10 -35 -12 -14 -1 -45 -13 -69 -25 -24 -13 -50 -23 -56
-23 -7 0 -15 -7 -19 -15 -3 -9 -18 -15 -39 -15 -29 0 -42 8 -78 51 -61 71
-109 119 -120 119 -5 0 -11 10 -14 23 -4 13 -22 38 -41 57 -131 129 -131 129
-108 167 30 46 60 70 136 108 39 20 90 47 112 60 23 13 60 25 84 27 37 3 45 0
57 -22 27 -49 56 -106 73 -142 9 -21 19 -38 22 -38 3 0 4 51 3 114 -3 119 2
135 46 143 9 2 27 6 41 9 61 12 138 19 173 15 l37 -3 0 -47z m382 19 c10 -17
25 -33 35 -36 34 -11 98 -38 110 -46 8 -6 8 -19 1 -44 -14 -52 -6 -59 27 -25
l30 29 80 -40 c44 -22 87 -45 95 -52 8 -8 28 -16 44 -20 31 -8 66 -40 66 -61
0 -7 9 -23 20 -35 32 -37 22 -61 -35 -91 -27 -14 -50 -32 -50 -40 0 -14 -71
-68 -91 -69 -6 0 -18 -18 -26 -39 -14 -35 -21 -40 -59 -48 -23 -5 -44 -13 -46
-18 -1 -6 13 -21 32 -34 l36 -24 -41 -18 c-37 -17 -43 -17 -87 -2 -26 9 -57
28 -70 41 -41 44 -109 77 -196 93 -34 7 -84 17 -112 24 l-50 11 2 119 c2 103
4 122 23 147 19 25 20 33 10 63 -6 19 -9 39 -5 44 3 6 7 40 8 76 3 87 24 107
110 101 39 -2 61 1 68 10 20 24 53 16 71 -16z m-1310 -450 c16 -16 33 -30 38
-30 5 0 16 -10 25 -22 8 -13 37 -45 64 -73 27 -27 81 -90 120 -140 66 -83 83
-115 63 -115 -4 0 -14 -16 -21 -35 -7 -19 -25 -50 -41 -67 -29 -31 -55 -89
-81 -178 -7 -25 -20 -56 -28 -68 -13 -22 -20 -23 -65 -18 -28 4 -96 8 -151 11
-55 2 -124 9 -154 14 -29 6 -66 11 -82 11 -15 0 -39 4 -52 9 l-24 9 18 99 c21
111 50 213 61 213 5 0 8 7 8 14 0 12 19 14 115 11 99 -4 114 -3 108 10 -3 9
-23 25 -44 35 -22 11 -56 29 -78 40 -39 19 -60 48 -43 59 15 10 92 128 92 140
0 15 91 101 108 101 8 0 27 -13 44 -30z m2065 -142 c13 -12 23 -27 23 -35 0
-7 5 -13 10 -13 6 0 10 -5 10 -11 0 -6 9 -24 21 -40 11 -16 33 -53 47 -82 l27
-53 -35 -23 c-19 -13 -47 -24 -61 -25 -14 -1 -34 -9 -43 -19 -10 -10 -31 -24
-48 -33 -36 -19 -32 -39 8 -40 17 0 34 -3 39 -6 6 -3 27 -8 47 -12 37 -7 38
-6 32 22 -5 26 -2 29 32 40 62 19 76 3 111 -130 50 -187 46 -199 -70 -205 -40
-2 -73 -8 -75 -13 -2 -6 -10 -10 -18 -10 -8 0 -17 -6 -20 -14 -6 -15 -37 -11
-68 10 -13 9 -34 11 -58 8 -23 -4 -38 -3 -38 4 0 17 -52 29 -107 26 -46 -3
-52 -2 -50 15 2 26 -34 91 -50 91 -15 0 -28 44 -18 60 7 12 -29 63 -39 53 -3
-3 -6 -2 -6 3 0 6 4 14 9 20 6 5 3 22 -6 44 -9 19 -17 37 -18 40 -1 3 -7 19
-14 35 -15 37 -6 55 36 69 17 6 45 23 61 38 16 14 39 31 50 37 11 6 22 21 26
35 3 14 17 28 34 34 37 13 63 39 56 57 -4 10 0 15 14 15 12 0 25 6 29 14 19
32 83 29 120 -6z m-899 -104 c23 -8 49 -14 56 -14 14 0 98 -52 147 -91 36 -30
27 -85 -21 -125 -19 -16 -42 -37 -52 -46 -22 -22 -24 -68 -4 -68 8 0 18 -4 21
-10 10 -15 -14 -50 -34 -50 -10 0 -29 -9 -42 -19 l-24 -20 48 1 c40 0 54 6 78
29 25 24 33 27 50 18 16 -8 26 -7 45 6 14 9 28 23 31 31 3 8 10 14 15 14 6 0
16 7 23 16 16 22 69 10 83 -19 6 -12 20 -52 30 -89 20 -69 19 -118 -3 -118 -7
0 -16 -7 -19 -16 -4 -11 -10 -13 -19 -7 -12 10 -39 9 -125 -3 -41 -6 -42 -7
-27 -24 16 -17 15 -19 -4 -29 -11 -6 -33 -11 -50 -11 -17 0 -51 -10 -75 -22
-44 -21 -44 -21 -23 -37 49 -36 139 -81 161 -81 7 0 36 -22 64 -49 38 -37 53
-46 66 -39 10 6 16 5 16 -2 0 -5 17 -10 38 -10 78 0 93 -51 37 -124 -14 -18
-25 -38 -25 -44 0 -7 -4 -12 -10 -12 -5 0 -10 -11 -10 -24 0 -13 -9 -35 -20
-48 -11 -12 -31 -36 -44 -52 -35 -42 -62 -30 -159 68 -45 45 -102 96 -127 113
-25 17 -58 47 -74 67 -36 44 -51 38 -26 -12 10 -20 30 -62 45 -92 17 -37 35
-60 54 -68 19 -9 31 -22 35 -43 3 -16 22 -46 42 -67 20 -20 44 -54 54 -75 9
-21 24 -43 33 -50 9 -7 18 -27 19 -46 3 -33 1 -35 -35 -43 -20 -4 -49 -15 -63
-25 -26 -16 -27 -16 -45 6 -18 21 -23 23 -61 13 -29 -8 -46 -8 -54 -1 -7 6
-18 44 -25 85 -6 41 -16 75 -20 75 -5 1 -12 2 -17 3 -16 2 -50 43 -70 82 -13
25 -23 69 -26 110 -3 38 -10 70 -16 72 -6 2 -20 23 -32 45 l-21 42 -10 -30
c-5 -16 -18 -42 -28 -57 -11 -14 -19 -31 -19 -37 0 -7 -7 -22 -15 -34 -8 -13
-20 -52 -25 -88 -26 -152 -26 -163 -11 -191 11 -21 12 -32 3 -52 -9 -21 -16
-24 -62 -22 -28 1 -54 6 -58 11 -10 15 -50 35 -67 35 -8 0 -32 17 -53 38 l-38
38 29 65 c21 46 26 68 19 80 -19 29 13 142 51 181 7 7 20 29 29 48 13 27 14
36 5 38 -17 4 -127 -47 -127 -59 0 -5 -7 -9 -15 -9 -8 0 -15 -4 -15 -8 0 -8
-60 -31 -97 -38 -7 -1 -13 6 -13 17 0 24 -11 24 -55 -1 -20 -11 -40 -20 -46
-20 -22 0 -41 33 -54 95 -8 36 -21 75 -29 87 -10 14 -12 27 -6 38 8 16 22 22
135 68 34 14 51 27 53 41 4 23 24 31 81 34 23 1 41 5 41 10 0 4 6 7 13 6 6 -1
27 -1 46 0 l35 1 -34 25 c-19 14 -40 25 -47 25 -8 0 -24 6 -36 14 -12 8 -46
17 -74 21 -29 4 -55 10 -58 14 -2 5 -18 8 -34 9 -16 0 -39 5 -50 11 -25 14
-39 77 -22 102 6 11 11 25 11 32 0 8 11 26 25 41 14 15 27 37 30 49 11 40 39
67 78 74 30 5 44 1 76 -22 22 -15 41 -36 43 -48 2 -14 16 -26 43 -36 22 -9 45
-19 50 -23 34 -26 75 -67 90 -90 17 -28 35 -37 35 -19 0 5 -6 16 -14 23 -7 8
-17 29 -21 48 -4 19 -20 57 -36 85 -16 27 -36 64 -44 80 -8 17 -28 41 -45 55
-38 31 -42 85 -8 114 58 50 215 78 307 56 52 -12 69 -27 29 -26 -20 1 -23 -4
-21 -32 1 -21 10 -41 27 -57 23 -21 25 -27 14 -50 -6 -14 -8 -28 -4 -32 9 -9
27 18 22 32 -2 6 2 19 10 30 8 10 14 39 14 64 0 51 4 59 40 83 26 17 44 16
118 -8z m-1065 -773 c20 -7 37 -16 38 -19 1 -4 3 -24 4 -44 2 -20 9 -47 15
-58 6 -12 18 -45 27 -73 8 -29 24 -68 35 -87 l20 -34 -24 -19 c-12 -11 -30
-24 -38 -31 -9 -6 -23 -24 -33 -39 -10 -15 -26 -31 -35 -34 -19 -8 -42 -28
-42 -38 0 -9 -21 -27 -48 -43 -18 -10 -22 -10 -22 3 0 8 -7 15 -16 15 -12 0
-15 -6 -11 -22 8 -30 -7 -55 -81 -123 -67 -62 -89 -73 -84 -41 2 10 0 22 -5
25 -4 3 -25 40 -46 81 -21 41 -42 82 -46 90 -5 8 -17 34 -27 58 -16 39 -16 43
-1 60 9 10 37 28 62 41 24 12 47 26 50 32 6 9 -73 10 -90 1 -20 -12 -66 -11
-70 1 -7 19 -16 68 -21 117 -2 25 -8 59 -13 76 -12 43 16 95 60 109 47 16 392
13 442 -4z m1863 -52 c53 1 65 -2 99 -29 33 -27 45 -30 104 -30 65 0 122 -11
151 -30 11 -7 14 -26 12 -81 -1 -39 -7 -79 -12 -89 -6 -10 -10 -30 -10 -44 0
-15 -4 -34 -9 -44 -6 -9 -13 -38 -16 -64 -3 -27 -11 -48 -16 -48 -6 0 -7 -9
-4 -20 6 -18 2 -20 -44 -20 -27 0 -76 7 -108 15 -57 15 -123 20 -123 10 0 -29
63 -74 94 -66 5 1 16 -5 26 -14 9 -8 19 -12 22 -9 10 9 57 -26 63 -47 8 -23
-26 -98 -55 -124 -11 -10 -20 -22 -20 -26 0 -5 -38 -47 -84 -94 -80 -82 -86
-86 -101 -68 -8 10 -16 22 -18 27 -1 4 -20 27 -42 51 -22 23 -69 74 -105 113
-35 39 -77 77 -92 83 -18 7 -42 34 -64 72 -35 60 -35 61 -16 76 11 9 32 36 47
61 15 25 34 48 41 53 7 4 21 33 31 65 10 31 23 63 30 70 7 7 13 21 13 30 0 9
7 26 15 36 8 11 15 30 15 42 0 13 4 25 9 28 5 3 8 29 8 57 -1 59 12 72 63 63
19 -3 62 -6 96 -5z m-1418 -647 c29 -26 105 -59 125 -54 4 1 7 -2 7 -7 0 -8
26 -15 100 -27 14 -2 36 -7 50 -11 14 -3 30 -5 37 -4 7 1 10 -10 7 -31 -2 -18
-9 -77 -15 -130 -6 -53 -8 -105 -4 -115 5 -10 10 -25 11 -33 7 -35 37 -110 45
-110 5 0 9 -7 9 -15 0 -11 -8 -13 -30 -8 -16 3 -30 4 -30 2 0 -2 4 -19 10 -38
14 -48 -10 -81 -59 -81 -63 0 -215 29 -251 47 -42 22 -50 31 -50 62 0 22 -1
22 -23 9 -20 -14 -26 -13 -57 3 -19 11 -41 19 -48 19 -17 0 -75 31 -84 45 -4
6 -34 33 -67 59 -34 27 -61 55 -61 62 0 7 13 26 28 42 16 16 36 44 45 63 15
31 57 69 57 51 0 -7 19 -17 105 -58 17 -8 39 -12 48 -8 14 5 8 15 -33 62 -28
31 -50 62 -50 70 0 8 17 32 38 53 20 22 37 47 37 55 0 13 50 54 66 54 3 0 20
-13 37 -28z m889 -71 c50 -51 62 -66 72 -95 6 -13 29 -34 53 -47 25 -14 50
-38 60 -57 9 -19 23 -41 32 -50 37 -39 86 -105 86 -116 0 -35 -27 -67 -65 -78
-22 -6 -44 -17 -50 -23 -5 -7 -41 -31 -79 -54 -88 -53 -133 -49 -149 14 -4 17
-5 16 -6 -5 -1 -14 -5 -30 -9 -37 -9 -14 -116 -34 -140 -26 -41 14 -70 91 -41
109 14 8 4 75 -13 85 -10 6 -8 12 7 23 17 12 18 17 7 41 -8 17 -10 44 -6 71 4
26 2 49 -4 57 -6 6 -12 46 -14 87 l-3 75 35 3 c43 4 128 30 155 48 27 19 29
19 72 -25z"/>
</g>
</svg>
